<?xml version="1.0" encoding="utf-8"?>
<!-- Generator: Adobe Illustrator 23.0.3, SVG Export Plug-In . SVG Version: 6.00 Build 0)  -->
<svg version="1.1" id="Capa_1" xmlns="http://www.w3.org/2000/svg" xmlns:xlink="http://www.w3.org/1999/xlink" x="0px" y="0px"
	 viewBox="0 0 512 512" style="enable-background:new 0 0 512 512;" xml:space="preserve">
<style type="text/css">
	.st0{stroke:#000000;stroke-width:4;stroke-miterlimit:10;}
</style>
<g>
	<g>
		<path d="M504.5,248.5H383.7v-17.1h32.6c4.1,0,7.5-3.4,7.5-7.5s-3.4-7.5-7.5-7.5h-32.6v-17.1h22.6c8.4,0,16.4-3.3,22.3-9.2
			l49.3-49.3c3.2,1.6,6.8,2.5,10.5,2.5c6.3,0,12.2-2.4,16.6-6.9c4.4-4.4,6.9-10.4,6.9-16.6c0-6.3-2.4-12.2-6.9-16.6
			c-4.4-4.4-10.4-6.9-16.6-6.9s-12.2,2.4-16.6,6.9c-4.4,4.4-6.9,10.4-6.9,16.6c0,3.7,0.9,7.3,2.5,10.5l-49.3,49.3
			c-3.1,3.1-7.3,4.8-11.7,4.8h-22.6v-16.5c0-21.8-17.7-39.6-39.6-39.6h-16.5V61.9c9.3-3.1,16-11.9,16-22.3c0-13-10.6-23.5-23.5-23.5
			s-23.5,10.6-23.5,23.5c0,10.4,6.7,19.2,16,22.3v66.4h-17.1V95.7c0-4.1-3.4-7.5-7.5-7.5s-7.5,3.4-7.5,7.5v32.6h-17.1V7.5
			c0-4.1-3.4-7.5-7.5-7.5s-7.5,3.4-7.5,7.5v120.8h-17.1V95.7c0-4.1-3.4-7.5-7.5-7.5s-7.5,3.4-7.5,7.5v32.6h-17.1v-22.6
			c0-8.4-3.3-16.3-9.2-22.3L140.8,34c4.4-8.8,2.9-19.8-4.4-27.1c-9.2-9.2-24.1-9.2-33.3,0c-9.2,9.2-9.2,24.1,0,33.3
			c4.6,4.6,10.6,6.9,16.6,6.9c3.6,0,7.2-0.8,10.5-2.5l49.3,49.3c3.1,3.1,4.8,7.3,4.8,11.7v22.6h-16.5c-3.3,0-6.7,0.4-9.9,1.2
			c-4,1-6.4,5.1-5.4,9.1s5.1,6.4,9.1,5.4c2-0.5,4.1-0.8,6.1-0.8h176.4c13.5,0,24.6,11,24.6,24.6v176.4c0,2.1-0.3,4.1-0.8,6.1
			c-1,4,1.4,8.1,5.4,9.1c0.6,0.2,1.3,0.2,1.9,0.2c3.3,0,6.4-2.2,7.3-5.6c0.8-3.2,1.2-6.5,1.2-9.9v-16.5h66.4
			c3.1,9.3,11.9,16,22.3,16c13,0,23.5-10.6,23.5-23.5s-10.6-23.5-23.5-23.5c-10.4,0-19.2,6.7-22.3,16h-66.4v-17.1h32.6
			c4.1,0,7.5-3.4,7.5-7.5s-3.4-7.5-7.5-7.5h-32.6v-17.1h120.8c4.1,0,7.5-3.4,7.5-7.5C512,251.9,508.6,248.5,504.5,248.5z
			 M482.4,113.7c1.6-1.6,3.8-2.5,6-2.5s4.4,0.9,6,2.5s2.5,3.8,2.5,6s-0.9,4.4-2.5,6s-3.8,2.5-6,2.5s-4.4-0.9-6-2.5s-2.5-3.8-2.5-6
			S480.8,115.3,482.4,113.7z M125.8,29.6c-3.3,3.3-8.7,3.3-12.1,0c-3.3-3.3-3.3-8.7,0-12.1c1.7-1.7,3.8-2.5,6-2.5
			c2.2,0,4.4,0.8,6,2.5C129.1,20.8,129.1,26.2,125.8,29.6z M320.1,48.1c-4.7,0-8.5-3.8-8.5-8.5s3.8-8.5,8.5-8.5
			c4.7,0,8.5,3.8,8.5,8.5S324.8,48.1,320.1,48.1z M472.4,311.6c4.7,0,8.5,3.8,8.5,8.5c0,4.7-3.8,8.5-8.5,8.5s-8.5-3.8-8.5-8.5
			C463.9,315.4,467.7,311.6,472.4,311.6z"/>
	</g>
</g>
<g>
	<g>
		<path d="M408.9,471.8c-7.3-7.3-18.3-8.8-27.1-4.4l-49.3-49.3c-3.1-3.1-4.8-7.3-4.8-11.7v-22.6h16.5c3.3,0,6.7-0.4,9.9-1.2
			c4-1,6.4-5.1,5.4-9.1c-1-4-5.1-6.4-9.1-5.4c-2,0.5-4.1,0.8-6.1,0.8H167.8c-13.5,0-24.6-11-24.6-24.6V167.8c0-2.1,0.3-4.2,0.8-6.1
			c1-4-1.4-8.1-5.4-9.1c-4-1-8.1,1.4-9.1,5.4c-0.8,3.2-1.2,6.5-1.2,9.9v16.5H61.9c-3.1-9.3-11.9-16-22.3-16
			c-13,0-23.5,10.6-23.5,23.5s10.6,23.5,23.5,23.5c10.4,0,19.2-6.7,22.3-16h66.4v17.1H95.7c-4.1,0-7.5,3.4-7.5,7.5s3.4,7.5,7.5,7.5
			h32.6v17.1H7.5c-4.1,0-7.5,3.4-7.5,7.5c0,4.1,3.4,7.5,7.5,7.5h120.8v17.1H95.7c-4.1,0-7.5,3.4-7.5,7.5s3.4,7.5,7.5,7.5h32.6v17.1
			h-22.6c-8.4,0-16.3,3.3-22.3,9.2L34,371.2c-3.2-1.6-6.8-2.5-10.5-2.5c-6.3,0-12.2,2.4-16.6,6.9C2.4,380.1,0,386,0,392.3
			s2.4,12.2,6.9,16.6c4.4,4.4,10.4,6.9,16.6,6.9s12.2-2.4,16.6-6.9c4.4-4.4,6.9-10.4,6.9-16.6c0-3.7-0.9-7.3-2.5-10.5l49.3-49.3
			c3.1-3.1,7.3-4.8,11.7-4.8h22.6v16.5c0,21.8,17.7,39.6,39.6,39.6h16.5v66.4c-9.3,3.1-16,11.9-16,22.3c0,13,10.6,23.5,23.5,23.5
			s23.5-10.6,23.5-23.5c0-10.4-6.7-19.2-16-22.3v-66.4h17.1v32.6c0,4.1,3.4,7.5,7.5,7.5s7.5-3.4,7.5-7.5v-32.6h17.1v120.8
			c0,4.1,3.4,7.5,7.5,7.5s7.5-3.4,7.5-7.5V383.7h17.1v32.6c0,4.1,3.4,7.5,7.5,7.5s7.5-3.4,7.5-7.5v-32.6h17.1v22.6
			c0,8.4,3.3,16.4,9.2,22.3l49.3,49.3c-4.4,8.8-2.9,19.8,4.4,27.1c4.6,4.6,10.6,6.9,16.6,6.9s12.1-2.3,16.6-6.9
			C418.1,495.9,418.1,481,408.9,471.8z M39.6,200.4c-4.7,0-8.5-3.8-8.5-8.5c0-4.7,3.8-8.5,8.5-8.5s8.5,3.8,8.5,8.5
			C48.1,196.6,44.3,200.4,39.6,200.4z M29.6,398.3c-1.6,1.6-3.8,2.5-6,2.5s-4.4-0.9-6-2.5s-2.5-3.8-2.5-6s0.9-4.4,2.5-6
			s3.8-2.5,6-2.5s4.4,0.9,6,2.5s2.5,3.8,2.5,6S31.2,396.7,29.6,398.3z M200.4,472.4c0,4.7-3.8,8.5-8.5,8.5s-8.5-3.8-8.5-8.5
			s3.8-8.5,8.5-8.5S200.4,467.7,200.4,472.4z M398.3,494.5c-3.3,3.3-8.7,3.3-12.1,0c-3.3-3.3-3.3-8.7,0-12.1c1.7-1.7,3.8-2.5,6-2.5
			s4.4,0.8,6,2.5C401.6,485.8,401.6,491.2,398.3,494.5z"/>
	</g>
</g>
<g>
	<g>
		<path class="st0" d="M292.8,167.1h-73.6c-28.7,0-52.1,23.4-52.1,52.1v73.6c0,28.7,23.4,52.1,52.1,52.1h73.6
			c28.7,0,52.1-23.4,52.1-52.1v-73.6C344.9,190.5,321.5,167.1,292.8,167.1z M337.9,292.8c0,24.9-20.2,45.1-45.1,45.1h-73.6
			c-24.9,0-45.1-20.2-45.1-45.1v-73.6c0-24.9,20.2-45.1,45.1-45.1h73.6c24.9,0,45.1,20.2,45.1,45.1V292.8z"/>
	</g>
</g>
<g>
	<g>
		<path class="st0" d="M292.8,182.4h-73.6c-20.3,0-36.8,16.5-36.8,36.8v73.6c0,20.3,16.5,36.8,36.8,36.8h21.2c1.9,0,3.5-1.6,3.5-3.5
			s-1.6-3.5-3.5-3.5h-21.2c-16.5,0-29.8-13.4-29.8-29.8v-73.6c0-16.5,13.4-29.8,29.8-29.8h73.6c16.5,0,29.8,13.4,29.8,29.8v73.6
			c0,16.5-13.4,29.8-29.8,29.8h-20.9c-1.9,0-3.5,1.6-3.5,3.5s1.6,3.5,3.5,3.5h20.9c20.3,0,36.8-16.5,36.8-36.8v-73.6
			C329.6,198.9,313.1,182.4,292.8,182.4z"/>
	</g>
</g>
<g>
	<g>
		<path class="st0" d="M258.5,323.7c-0.6-0.6-1.5-1-2.5-1s-1.8,0.4-2.5,1c-0.6,0.6-1,1.5-1,2.5s0.4,1.8,1,2.5c0.6,0.6,1.5,1,2.5,1
			s1.8-0.4,2.5-1c0.6-0.6,1-1.5,1-2.5S259.1,324.3,258.5,323.7z"/>
	</g>
</g>
<g>
	<g>
		<path class="st0" d="M228.2,221.2c-1.3-1.4-3.5-1.5-4.9-0.2l-0.2,0.1c-1.4,1.3-1.5,3.5-0.1,4.9c0.7,0.7,1.6,1.1,2.5,1.1
			c0.9,0,1.7-0.3,2.4-0.9l0.1-0.1C229.4,224.8,229.5,222.6,228.2,221.2z"/>
	</g>
</g>
<g>
	<g>
		<path class="st0" d="M256,208.1c-7.6,0-15.2,1.8-21.9,5.3c-1.7,0.9-2.4,3-1.5,4.7c0.9,1.7,3,2.4,4.7,1.5c5.8-3,12.1-4.5,18.8-4.5
			c22.6,0,41,18.4,41,41s-18.4,41-41,41s-41-18.4-41-41c0-7.1,1.8-14.1,5.3-20.2c0.9-1.7,0.4-3.8-1.3-4.7c-1.7-0.9-3.8-0.4-4.7,1.3
			c-4.1,7.2-6.2,15.3-6.2,23.6c0,26.4,21.5,47.9,47.9,47.9s47.9-21.5,47.9-47.9S282.4,208.1,256,208.1z"/>
	</g>
</g>
<g>
	<g>
		<path class="st0" d="M256,224.8c-17.2,0-31.2,14-31.2,31.2s14,31.2,31.2,31.2s31.2-14,31.2-31.2S273.2,224.8,256,224.8z
			 M256,280.3c-13.4,0-24.3-10.9-24.3-24.3c0-13.4,10.9-24.3,24.3-24.3c13.4,0,24.3,10.9,24.3,24.3
			C280.3,269.4,269.4,280.3,256,280.3z"/>
	</g>
</g>
<g>
	<g>
		<path class="st0" d="M301.6,197.3c-7.3,0-13.2,5.9-13.2,13.2s5.9,13.2,13.2,13.2s13.2-5.9,13.2-13.2S308.8,197.3,301.6,197.3z
			 M301.6,216.7c-3.4,0-6.2-2.8-6.2-6.2s2.8-6.2,6.2-6.2c3.4,0,6.2,2.8,6.2,6.2S305,216.7,301.6,216.7z"/>
	</g>
</g>
</svg>
